<?xml version="1.0" encoding="utf-8"?>
<!-- Generator: Adobe Illustrator 23.0.2, SVG Export Plug-In . SVG Version: 6.00 Build 0)  -->
<svg version="1.1" id="ffd51b1e-d9cd-4f1b-a84c-ada8a80364ab"
	 xmlns="http://www.w3.org/2000/svg" xmlns:xlink="http://www.w3.org/1999/xlink" x="0px" y="0px" viewBox="0 0 1128.8 749.5"
	 style="enable-background:new 0 0 1128.8 749.5;" xml:space="preserve">
<style type="text/css">
	.st0{opacity:0.2;}
	.st1{fill:#3F3D56;}
	.st2{fill:#6C63FF;}
	.st3{opacity:0.1;enable-background:new    ;}
	.st4{opacity:0.1;fill:#6C63FF;enable-background:new    ;}
	.st5{opacity:0.1;fill:none;stroke:#6C63FF;stroke-width:3;stroke-miterlimit:10;enable-background:new    ;}
	.st6{fill:#FFFFFF;}
	.st7{opacity:0.6;}
	.st8{fill:url(#SVGID_1_);}
	.st9{fill:#A1616A;}
	.st10{opacity:0.15;enable-background:new    ;}
	.st11{fill:#FF6F61;}
	.st12{fill:#FBBEBE;}
	.st13{opacity:0.1;}
	.st14{fill:#3ACC6C;}
	.st15{fill:#373E46;}
	.st16{fill:#02C2D1;}
</style>
<title>followers</title>
<g class="st0">
	<path class="st1" d="M925.3,626.6c-7.6,4.5-15.3,9-23.1,13.2c-1.2,0.7-2.4,1.3-3.7,2c-5.9,3.2-11.9,6.2-18,9.2c0-0.5,0.1-1,0.2-1.4
		c0.7-5,2.2-9.8,4.6-14.2c1.1-2.1,2.4-4.1,3.9-6c6-7.4,14.2-11.6,22.7-10.4C917,619.8,921.8,622.5,925.3,626.6z"/>
	<path class="st1" d="M939.1,615.2c-0.2,1.1-0.3,2.1-0.6,3.2c-4.4,2.8-8.8,5.5-13.3,8.2c-7.6,4.5-15.3,9-23.1,13.2
		c-1.2,0.7-2.4,1.3-3.7,2c-1.5-1.1-2.8-2.3-4-3.7c-2.2-2.6-4-5.5-5.3-8.7c-5.4-14.1-3.2-30,6-41.9c6-7.4,14.2-11.6,22.7-10.4
		s15.2,7.5,18.8,16.3C939.4,600.4,940.2,607.8,939.1,615.2z"/>
	
		<ellipse transform="matrix(0.1423 -0.9898 0.9898 0.1423 224.4872 1398.0961)" class="st1" cx="919" cy="569.5" rx="34.7" ry="26.5"/>
	<path class="st2" d="M1096.3,222.9c-2.6,18.1-9.1,35.5-19,50.8l-74.4-11.2l67.2,21.2c-3.6,4.6-7.6,8.9-11.8,13
		c29.3,50.7,20.1,114.8-22.3,155.2c12,20.8,17.9,44.5,16.9,68.5c-31.6,36.8-70.2,69.8-114.3,98c-4.4,2.8-8.8,5.5-13.3,8.2
		c-7.6,4.5-15.3,9-23.1,13.2c-2.6-0.5-5.1-1.1-7.7-1.7c-3.1-0.8-6.2-1.7-9.2-2.7c-66.3-22.6-101.8-94.6-79.2-160.9
		c6.6-19.4,17.8-36.9,32.6-51c-1.3-2.2-2.5-4.5-3.6-6.7l0,0c-0.3-0.7-0.7-1.3-1-2c-9.2-19.3-13.4-40.6-12.2-61.9l0.2-2.2
		c0.1-1.2,0.2-2.4,0.3-3.6c0.2-1.7,0.4-3.4,0.6-5.1v-0.2c2-13.6,6.1-26.9,12.4-39.1l90.7,45.7l-82.7-59.3c5.1-7.6,11-14.5,17.6-20.8
		c-35-60.6-14.3-138.2,46.4-173.3c60.6-35,138.2-14.3,173.3,46.4c3,5.2,5.7,10.6,7.9,16.2l-101.9,54.5l107.4-37.5
		C1097.8,190.4,1098.6,206.8,1096.3,222.9z"/>
	<path class="st3" d="M1052.9,520.3c-31.6,36.8-70.2,69.8-114.3,98c-4.4,2.8-8.8,5.6-13.3,8.2c-7.6,4.5-15.3,9-23.1,13.2
		c-2.6-0.5-5.1-1.1-7.7-1.7c-3.1-0.8-6.2-1.7-9.2-2.7c-66.3-22.6-101.7-94.7-79.1-161c6.6-19.3,17.7-36.8,32.5-50.9
		c-1.3-2.2-2.5-4.5-3.6-6.7l0,0c-0.3-0.7-0.7-1.3-1-2c-9.2-19.3-13.4-40.6-12.2-61.9l0.2-2.2c0.1-1.2,0.2-2.4,0.3-3.6
		c0.2-1.7,0.4-3.4,0.6-5.1v-0.2c0.8-2.7,11.1-0.4,26.8,5l0,0l3.3,1.2c3.5,1.2,7.2,2.6,11.1,4.1l0,0c8.5,3.3,17.9,7.1,27.8,11.4l0,0
		l0.7,0.3l0,0l1.4,0.6l0,0c66.7,28.9,154.4,75.3,141.9,87.3C1047.9,472.6,1053.8,496.3,1052.9,520.3z"/>
</g>
<g class="st0">
	<path class="st1" d="M318.9,682.7c-4.2-1.4-8.4-2.9-12.5-4.5c-9.6-3.5-19.1-7.3-28.5-11.2c1.9-1.5,4-2.7,6.4-3.5
		c8.3-2.9,17.5-0.1,24.9,6.5C313.2,673.5,316.5,677.8,318.9,682.7z"/>
	<path class="st1" d="M309.2,669.9c-0.6,2.9-1.5,5.7-2.8,8.3c-9.6-3.5-19.1-7.3-28.5-11.2c-8.1-3.4-16.1-7-24-10.7
		c-0.3-2.4-0.5-4.8-0.5-7.2c0-2.5,0.3-5,0.8-7.5c2-9.8,7.7-17.7,16-20.5s17.5-0.1,24.9,6.5c1.8,1.6,3.5,3.4,4.9,5.3
		c3.3,4.2,5.8,9,7.5,14.1C310.2,654.2,310.7,662.2,309.2,669.9z"/>
	
		<ellipse transform="matrix(0.9535 -0.3014 0.3014 0.9535 -172.388 109.1828)" class="st1" cx="267.7" cy="613.3" rx="27.3" ry="36.5"/>
	
		<ellipse transform="matrix(0.9535 -0.3014 0.3014 0.9535 -160.2601 102.9744)" class="st1" cx="253.6" cy="570.9" rx="27.3" ry="36.5"/>
	<path class="st2" d="M300.1,632.7c-2.8,1.6-5.6,3.1-8.6,4.6c-4.7,2.3-9.6,4.3-14.5,6c-4.5,1.6-9.1,2.9-13.8,3.9
		c-3.2,0.7-6.5,1.3-9.8,1.8c-4,0.6-8.1,1-12.1,1.1c-48.3-24-91.7-53.4-128.7-86.9c-0.5-1.4-1-2.8-1.5-4.3
		c-9.5-28.5-9.3-59.2,0.5-87.6c-24.8-16.6-43.2-41-52.5-69.4c-4.6-13.9-7-28.4-7-43h104.7L53.1,342.4c1.2-9.5,3.3-18.9,6.4-28
		C34.8,297.8,16.3,273.4,7,245C-16.2,174.9,20.3,99,88.7,75.5c45.8-15.7,94.2-4,128.2,26.5l-68.1,99.8l81.1-86.3
		c11,13.1,19.4,28.2,24.7,44.4c6.1,18.3,8.2,37.8,6.3,57l-73.6,24.7l71.7-11.9c-1.2,6-2.8,12-4.8,17.8c24.8,16.6,43.2,41,52.5,69.4
		c4.5,13.5,6.9,27.6,7,41.8v0.1c0,1.1,0,2.2,0,3.3c0,0.5,0,0.9,0,1.4c-0.3,14-2.8,27.8-7.4,41c10.1,6.7,19.1,14.8,27,24
		c0.2,0.2,0.4,0.4,0.6,0.7c11.1,13.2,19.5,28.3,24.9,44.7C379.2,535.5,353.3,601.8,300.1,632.7z"/>
	<path class="st3" d="M300.1,632.7c-2.8,1.6-5.6,3.1-8.6,4.6c-4.7,2.3-9.6,4.3-14.5,6c-4.5,1.6-9.1,2.9-13.8,3.9
		c-3.2,0.7-6.5,1.3-9.8,1.8c-4,0.6-8.1,1-12.1,1.1c-48.3-24-91.7-53.4-128.7-86.9c-0.5-1.4-1-2.8-1.5-4.3
		c-9.5-28.5-9.3-59.2,0.5-87.6c-24.8-16.6-43.2-41-52.5-69.4c-3.6-10.8,146.1-19.5,214.3-11.2l1.6,0.2c20.7,2.7,33.4,7,31.2,13.4
		c10.1,6.7,19.1,14.8,27,24c0.2,0.2,0.4,0.4,0.6,0.7c11.1,13.2,19.5,28.3,24.9,44.6C379.2,535.5,353.3,601.8,300.1,632.7z"/>
</g>
<path class="st4" d="M612.2,111.9c0.5-0.8,0.8-1.7,0.9-2.6c0-5.7-11.7-10.4-26.2-10.4s-26.2,4.6-26.2,10.4c0,1.1,0.4,2.1,1.1,3
	c-16.1,1.8-26.9,5.2-26.9,9c0,5.8,24,10.4,53.5,10.4s53.6-4.6,53.6-10.4C642.1,117.1,629.9,113.6,612.2,111.9z"/>
<path class="st4" d="M797.1,46.9c0.9-1.2,1.3-2.7,1.4-4.2c0-9.1-18.6-16.5-41.5-16.5s-41.5,7.4-41.5,16.5c0,1.7,0.6,3.4,1.7,4.7
	c-25.5,2.8-42.7,8.2-42.7,14.3c0,9.1,38.1,16.5,85,16.5s85-7.4,85-16.5C844.5,55.2,825.2,49.6,797.1,46.9z"/>
<path class="st4" d="M464.1,46.9c0.9-1.2,1.3-2.7,1.4-4.2c0-9.1-18.6-16.5-41.5-16.5s-41.5,7.4-41.5,16.5c0,1.7,0.6,3.4,1.7,4.7
	c-25.5,2.8-42.7,8.2-42.7,14.3c0,9.1,38.1,16.5,85,16.5s85-7.4,85-16.5C511.5,55.2,492.2,49.6,464.1,46.9z"/>
<path class="st5" d="M358.9,133.1c2.3-1.4,5.5-0.1,7.1,2.1s2,5,2.5,7.6c0.9,5.9,1.5,12.7-2.5,17.2c6.5-19.8,25.3-34.9,46-37.1"/>
<path class="st5" d="M620.4,35.1c1.5-0.9,3.5,0,4.5,1.3c0.9,1.5,1.5,3.2,1.6,4.9c0.6,3.8,1,8.2-1.6,11c4.5-12.9,16-22.2,29.5-23.8"
	/>
<path class="st5" d="M885.4,8.1c1.5-0.9,3.5,0,4.5,1.3c0.9,1.5,1.5,3.2,1.6,4.9c0.6,3.8,1,8.2-1.6,11c4.5-12.9,16-22.2,29.5-23.8"/>
<ellipse class="st4" cx="581.8" cy="705" rx="547" ry="44.5"/>
<path class="st6" d="M156.3,194.6h839.1c10.2,0,18.5,8.3,18.5,18.5v465.1c0,10.2-8.3,18.5-18.5,18.5H156.3
	c-10.2,0-18.5-8.3-18.5-18.5V213C137.8,202.8,146.1,194.6,156.3,194.6z"/>
<path class="st1" d="M1013.8,213v26.5h-876V213c0-10.2,8.2-18.5,18.4-18.5c0,0,0,0,0,0h839.1C1005.5,194.5,1013.8,202.8,1013.8,213
	C1013.8,213,1013.8,213,1013.8,213z"/>
<g class="st7">
	<path class="st2" d="M219.2,312h140.3c9.3,0,16.9,7.6,16.9,16.9v84.3c0,9.3-7.6,16.9-16.9,16.9H219.2c-9.3,0-16.9-7.6-16.9-16.9
		v-84.3C202.3,319.6,209.8,312,219.2,312z"/>
	<path class="st6" d="M272.3,413.4c-12.9-8.4-18-24.8-12.1-39c-11-15.2-7.5-36.5,7.8-47.5c15.2-11,36.5-7.5,47.5,7.8
		c7.6,10.6,8.5,24.6,2.2,36.1c8.3,14.7,3.7,33.3-10.4,42.5c7,4.2,12.5,10.3,15.9,17.7h-66.8C259.8,423.7,265.4,417.5,272.3,413.4z"
		/>
</g>
<path class="st2" d="M499.2,506h140.3c9.3,0,16.9,7.6,16.9,16.9v84.3c0,9.3-7.6,16.9-16.9,16.9H499.2c-9.3,0-16.9-7.6-16.9-16.9
	v-84.3C482.3,513.6,489.8,506,499.2,506z"/>
<path class="st6" d="M586.3,613.4c5,2.9,9.2,6.9,12.5,11.7h-59.8c3.2-4.8,7.5-8.7,12.5-11.7c-12.9-8.4-18-24.8-12.1-39
	c-11-15.2-7.5-36.5,7.8-47.5c15.2-11,36.5-7.5,47.5,7.8c7.6,10.6,8.5,24.6,2.2,36.1C605,585.5,600.4,604.1,586.3,613.4L586.3,613.4z
	"/>
<g class="st7">
	<path class="st2" d="M499.2,312h140.3c9.3,0,16.9,7.6,16.9,16.9v84.3c0,9.3-7.6,16.9-16.9,16.9H499.2c-9.3,0-16.9-7.6-16.9-16.9
		v-84.3C482.3,319.6,489.8,312,499.2,312z"/>
	<path class="st6" d="M603.2,380.1c2.6,12.9-2.9,26.1-13.9,33.3c7,4.2,12.5,10.3,15.9,17.7h-66.8c3.4-7.4,9-13.5,15.9-17.7
		c-11.8-7.7-17.2-22.3-13.2-35.8c-0.4,0-0.9,0.1-1.3,0.1c-7.2-0.1-12.9-6-12.9-13.1c0.1-6.7,5.2-12.2,11.9-12.8c-0.7-1.6-1-3.3-1-5
		c0-7.2,5.9-13,13-13c5.4,0,10.2,3.4,12.1,8.4c4.2-3.9,10.4-4.6,15.3-1.7c6.2-3.6,14.2-1.5,17.8,4.7c0.3,0.5,0.5,1,0.7,1.5
		c7.1,0,12.8,5.6,13,12.7c4.6,5.5,3.8,13.7-1.7,18.3C606.7,378.7,605,379.6,603.2,380.1L603.2,380.1z"/>
</g>
<g class="st7">
	<path class="st2" d="M792.2,506h140.3c9.3,0,16.9,7.6,16.9,16.9v84.3c0,9.3-7.6,16.9-16.9,16.9H792.2c-9.3,0-16.9-7.6-16.9-16.9
		v-84.3C775.3,513.6,782.8,506,792.2,506z"/>
	<path class="st6" d="M896.2,580.1c2.6,12.9-2.9,26.1-13.9,33.3c5,2.9,9.2,6.9,12.5,11.7h-59.8c3.2-4.8,7.5-8.7,12.5-11.7
		c-11.8-7.7-17.2-22.3-13.2-35.8c-0.4,0-0.9,0.1-1.3,0.1c-7.2-0.1-12.9-6-12.9-13.1c0.1-6.7,5.2-12.2,11.9-12.8c-0.7-1.6-1-3.3-1-5
		c0-7.2,5.9-13,13-13c5.4,0,10.2,3.4,12.1,8.4c4.2-3.9,10.4-4.6,15.3-1.7c6.2-3.6,14.2-1.5,17.8,4.7c0.3,0.5,0.5,1,0.7,1.5
		c7.1,0,12.8,5.6,13,12.7c4.6,5.5,3.8,13.7-1.7,18.3C899.7,578.7,898,579.6,896.2,580.1L896.2,580.1z"/>
</g>
<path class="st2" d="M792.2,312h140.3c9.3,0,16.9,7.6,16.9,16.9v84.3c0,9.3-7.6,16.9-16.9,16.9H792.2c-9.3,0-16.9-7.6-16.9-16.9
	v-84.3C775.3,319.6,782.8,312,792.2,312z"/>
<path class="st6" d="M895.2,431h-66.8c3.4-7.4,9-13.5,15.9-17.7c-13.8-9-18.5-27.1-10.8-41.7c-4.2-3.1-6.7-7-6.7-11.1
	c0-10.5,15.9-19,35.5-19s35.5,8.5,35.5,19c0,4.4-2.8,8.4-7.4,11.6c7.3,14.6,2.5,32.3-11.1,41.2C886.2,417.5,891.8,423.7,895.2,431z"
	/>
<g class="st7">
	<path class="st2" d="M219.2,506h140.3c9.3,0,16.9,7.6,16.9,16.9v84.3c0,9.3-7.6,16.9-16.9,16.9H219.2c-9.3,0-16.9-7.6-16.9-16.9
		v-84.3C202.3,513.6,209.8,506,219.2,506z"/>
	<path class="st2" d="M304.3,613.4c5,2.9,9.2,6.9,12.5,11.7h-59.8c3.2-4.8,7.5-8.7,12.5-11.7c-13.8-9-18.5-27.1-10.9-41.7
		c-4.2-3.1-6.7-7-6.7-11.1c0-10.5,15.9-19,35.5-19s35.5,8.5,35.5,19c0,4.4-2.8,8.4-7.4,11.6C322.7,586.7,317.9,604.5,304.3,613.4
		L304.3,613.4z"/>
	<path class="st2" d="M219.2,506h140.3c9.3,0,16.9,7.6,16.9,16.9v84.3c0,9.3-7.6,16.9-16.9,16.9H219.2c-9.3,0-16.9-7.6-16.9-16.9
		v-84.3C202.3,513.6,209.8,506,219.2,506z"/>
	<path class="st6" d="M304.3,613.4c5,2.9,9.2,6.9,12.5,11.7h-59.8c3.2-4.8,7.5-8.7,12.5-11.7c-13.8-9-18.5-27.1-10.9-41.7
		c-4.2-3.1-6.7-7-6.7-11.1c0-10.5,15.9-19,35.5-19s35.5,8.5,35.5,19c0,4.4-2.8,8.4-7.4,11.6C322.7,586.7,317.9,604.5,304.3,613.4
		L304.3,613.4z"/>
</g>
<linearGradient id="SVGID_1_" gradientUnits="userSpaceOnUse" x1="1027.8324" y1="-49.4862" x2="1027.8324" y2="273.2508" gradientTransform="matrix(1 0 0 -1 -35.6 674.5909)">
	<stop  offset="0" style="stop-color:#808080;stop-opacity:0.25"/>
	<stop  offset="0.54" style="stop-color:#808080;stop-opacity:0.12"/>
	<stop  offset="1" style="stop-color:#808080;stop-opacity:0.1"/>
</linearGradient>
<path class="st8" d="M1055.4,690.4c-1.7-1.2-3.5-2.2-5.4-3c-0.1-0.1-0.3-0.1-0.5-0.1c-4-2.9-7.7-6.1-11.1-9.6
	c0.7-0.6,1.4-1.2,2.1-1.7c-4.4-2.1-6.8-6.8-9.1-11.1c-6.2-11.4-14.4-21.6-24.2-30.2c-0.2-0.9-1.6-0.7-2.4-1.3
	c-0.5-0.5-0.7-1.2-0.5-1.9c0.1-0.7,0.4-1.3,0.6-1.9c0.2-1.6,0.2-3.2-0.1-4.7c-0.2-1.6-0.1-3.3,0.9-4.5c0.3-0.4,0.8-0.7,1.1-1.1
	c0.7-0.9,1-2.1,0.8-3.3c-0.1-1.1-0.3-2.3-0.8-3.3l10.7-29.1c2.5-6.8,5-13.7,5.2-20.9c0.2-5.8-1.3-11.8-4.8-16.3
	c0.6-0.2,1.3-0.3,1.9-0.5c-4.2-5.5-4.6-12.8-4.7-19.7c0-3.5-0.2-6.9-0.3-10.4c1.2,0.5,2.4,1,3.7,1.4c0.4,0.1,0.8,0.2,1.2,0.4
	c1.9,0.6,3.8,1,5.8,1.2c0.9,0.1,1.7,0.2,2.6,0.3l0,0l-3.8-9.4c-0.6-1.4-1-2.9-1.2-4.4l0,0c0-0.1,0-0.2,0-0.3c0-0.2,0-0.3,0-0.5
	c0.1-0.4,0.1-0.8,0.3-1.2c0.1-0.2,0.1-0.4,0.2-0.6c0.3-0.6,0.6-1.1,0.9-1.6c0.3-0.4,0.6-0.8,0.8-1.2c1.1-1.3,2-2.7,2.6-4.2
	c0.3-0.8,0.4-1.6,0.4-2.4c0-0.8-0.1-1.6-0.2-2.5c-0.1-0.5-0.2-1.1-0.4-1.6l0,0c-0.1-0.3-0.2-0.7-0.3-1c0-0.1,0-0.2-0.1-0.3
	c-0.1-0.2-0.2-0.5-0.2-0.7l-0.1-0.2c-0.1-0.3-0.2-0.5-0.3-0.8l-0.1-0.2c-1.4-3.6-3.2-7-4.3-10.6c-0.3-1-0.5-2-0.7-3l-0.1-0.8
	c0-0.2-0.1-0.4-0.1-0.7l-0.1-0.8c0-0.2-0.1-0.5-0.1-0.7s0-0.5,0-0.7c0-0.4,0-0.9,0-1.3c0-0.2,0-0.3,0-0.5c0-0.3,0-0.7,0-1v-0.5
	c0-0.3,0-0.7,0.1-1c0-0.2,0-0.3,0-0.5c0-0.5,0.1-1,0.2-1.4l0,0l0.2-1.3c0.3-1.2,0.4-2.4,0.4-3.7c0-0.2,0-0.5,0-0.7l-0.1-0.6
	c0-0.1,0-0.1,0-0.2c0-0.1-0.1-0.3-0.1-0.4s0-0.1,0-0.2l-0.1-0.4l-0.1-0.2l-0.2-0.4l-0.1-0.1c-0.1-0.2-0.2-0.3-0.2-0.5l0,0
	c-0.3-0.5-0.6-1-1-1.5l0,0c-2.4-3.1-6.4-5.5-8.5-9c-1.3-2.2-2.1-4.7-2.4-7.2c-0.1-0.6-0.2-1.2-0.3-1.7s-0.2-1.1-0.3-1.7
	c-0.1-0.4-0.1-0.7-0.2-1c0-0.1,0-0.2,0-0.2l-0.2-0.8c0-0.1,0-0.1,0-0.2l-0.2-0.9c0,0,0-0.1,0-0.2c-0.1-0.3-0.2-0.6-0.2-0.9
	c0,0,0-0.1,0-0.1c-0.1-0.3-0.2-0.6-0.3-1v-0.1c-0.1-0.3-0.2-0.7-0.3-1l0,0c-0.1-0.3-0.2-0.7-0.4-1l0,0c-0.1-0.4-0.2-0.7-0.4-1l0,0
	c-0.9-2.3-2.1-4.5-3.7-6.5c-3.3-4.3-8.5-7.3-13.8-7.1c-2.9,0.3-5.7,1-8.3,2.1l-7,2.6l2-0.9c-2,0.1-4.1,0.5-5.9,1.3
	c-1.9,0.8-3.2,2.6-3.5,4.7c0,1.2,0.4,2.4,0.3,3.6c-0.2,2-2.1,3.3-3,5c-0.5,1-0.8,2.2-0.7,3.4v0.1v0.4c0,0,0,0.1,0,0.1v0.2
	c-2.9-1.3-5.8-2.6-8.7-4c-4.8-2.4-9.7-5.1-12.6-9.6c-1-1.4-1.7-3-2.7-4.5c-1.1-1.5-2.3-3-3.6-4.4l-8.9-9.6c-0.7,1.3,0.2,2.8,0.9,4.1
	c0.7,1.3,1.3,2.8,1.7,4.3c0.2,0.5,0.2,1,0,1.5c-0.3,0.4-0.7,0.7-1.2,0.9c-1.7,1-2.4,3.1-1.8,5c0.6,1.8,2.2,3.2,4.1,3.6
	c0.6,0.1,1.3,0.2,1.8,0.5c1.1,0.5,1.6,1.8,2.3,2.7c1.4,1.7,3.7,2.3,5.8,2.9c3.3,3.8,6.7,7.5,10,11.2c5,5.8,10.1,11.6,16.6,15.5
	c0.7,0.4,1.4,0.8,2.1,1.1c0,0.1,0,0.2,0,0.3c-0.2,0.9-0.1,1.8,0.3,2.5c0.7,0.8,1.7,1.3,2.8,1.4l4.9,0.9c0,0.6-0.1,1.3-0.2,1.9
	c-0.1,0.4-0.2,0.8-0.2,1.1l0,0l-0.1,0.5c0,0,0,0,0,0.1c0,0.1,0,0.3,0,0.4s0,0.1,0,0.1s0,0.2,0,0.3v0.1c0,0.2,0,0.3,0,0.5
	c0.2,1.9,1.5,3.5,2.7,5c0.2,0.3,0.5,0.5,0.7,0.8c-1.1,1.4-1.9,3-2.2,4.7c-0.2,1.1-0.3,2.2-0.3,3.3c-0.7,0.6-1.2,1.4-1.5,2.3
	c-0.3,1.2-0.5,2.4-0.4,3.7v0.1c0,0.5,0,0.9,0,1.4c-0.1,1.7,0.2,3.5,0.8,5.1l0.2,0.4c-1.1,2.1-2.9,3.8-4.2,5.8
	c-2.7,4.6-2.2,10.3,1.2,14.4c1,1.2,2.3,2.3,2.4,3.8c0,0.7-0.1,1.4-0.2,2.1c-0.1,1.6,0.6,3.2,1,4.8c0.4,1.3,0.3,2.8-0.4,4
	c-0.8,1.1-1.1,2.5-1,3.8c0.4,2.1-0.5,4.1-0.6,6.2c-0.1,0.9,0,1.8-0.1,2.7c-0.2,0.8-0.5,1.7-0.8,2.5l-0.1,0.3
	c-1.8,0.8-3.6,1.6-5.3,2.6c-0.9,0.4-1.7,1.1-2.2,2c-0.3,0.9-0.3,1.9-0.1,2.8c0.5,3.6,1,7.2,1.5,10.8c-0.1,0-0.2-0.1-0.3-0.1
	c0.1,1.8,0.2,3.5,0.4,5.3c0,1.3,0.3,2.7,1,3.8c0.4,0.4,0.8,0.9,1.1,1.4c0.6,1.2-0.1,2.7-0.7,3.9s-0.7,3.1,0.5,3.7
	c0.6,0.4,1.3,0.8,2,1.1c-1.5,6-0.1,12.4,1.2,18.5l3.1,13.9c0.4,2,0.6,4,0.7,6c0,0.3,0,0.6,0,0.9c0.2,2.8,0.6,5.5,1.5,8.2
	c1.6,5.4,0.1,12,0.6,17.9c0.3,2.9,0.9,5.7,1.7,8.4c3.5,13.9,6.6,27.5,7.8,41.8c1.3,1.6,3,2.9,5,3.5c-0.2,1.8,0,3.8,0,4.8
	c0,0.8-0.1,1.7-0.4,2.5c-0.7,1.6-2.1,2.8-3.8,3.2c-0.5,0.2-1,0.3-1.5,0.4l0.6-0.5c-3.3-0.7-6.7-0.1-9.6,1.7
	c-0.9,0.5-1.6,1.3-1.9,2.2c-0.1,0.9,0.1,1.9,0.7,2.6c1.6,2.3,4,4,6.7,4.8c2.7,0.7,5.5,1.1,8.3,1.2l5.1,0.3c-0.4,0.6-0.2,1.4,0.3,1.8
	c0.5,0.4,1.2,0.6,1.9,0.7c2.1,0.3,4.2,0.3,6.3,0.1c0.5,0,1-0.2,1.4-0.5c0.4-0.3,0.4-0.9,0.1-1.3c0,0,0,0-0.1-0.1
	c0.6,0,1.2-0.4,1.4-1c0.2-0.6,0.3-1.2,0.2-1.8c-0.1-2.4-0.3-5.9-1.6-8c-0.4-0.8-1.4-1.2-2.2-1c-0.8-4.3-1.3-8.6-1.4-12.9
	c1.3-0.5,2.5-1,3.7-1.7c-3.6-5.8-3.7-13.1-2.6-19.8c0.5-2.1,0.8-4.2,1-6.4c0.2-4.3-0.4-9.1-2.8-12.7c4.3,2.8,8.2,6.2,11.3,10.2
	c5,6.5,8.1,14.5,14.2,19.9l2.4-2.3c1.3,2.2,2.5,4.5,3.7,6.7c0.9,1.7,1.6,3.5,2.1,5.3c0.6,2.8,0.6,5.7,0.2,8.6
	c-0.2,1.5-0.4,3-0.6,4.5c-0.1,0.6-0.2,1.3-0.4,1.9c0-0.2-0.1-0.4-0.1-0.6c-0.4-0.7-1.4-0.4-2,0.1c-1,0.8-1.9,1.8-2.5,2.9
	c-0.3,0.6-0.5,1.2-0.4,1.8c0.2,0.8,0.7,1.5,1.4,1.8c2.7,1.6,6.1,0.4,9-0.7c0.8-0.3,1.6-0.7,2.3-1.1c1.4-1,2.2-2.8,3.7-3.8
	c0.8-0.4,1.5-0.9,2.2-1.4c1.3-1.2,1.5-3.3,2.4-4.8c1.6-2.7,5.3-3.4,6.7-6.2C1059.8,696.4,1057.9,692.4,1055.4,690.4z"/>
<path class="st9" d="M992.8,703.1c0,0.8-0.1,1.7-0.4,2.5c-0.7,1.6-2.1,2.7-3.8,3.2c-1.6,0.6-3.3,0.7-5,1.2c-0.7,0.2-1.4,0.5-1.9,1
	c-1.4,1.4-0.6,4.1,1.1,5.2s3.9,1,5.9,0.9c4.3-0.3,8.5-0.9,12.7-1.8c1.5-0.3,3.3-1.1,3.5-2.6c0-0.5,0-1-0.1-1.5
	c-1-5.2-1.6-10.5-1.6-15.8c0-0.3-8.4-0.6-9.2-0.1C992.2,696.5,992.9,701.4,992.8,703.1z"/>
<path class="st9" d="M1030.3,684.7c1.4,2.3,2.7,4.7,3.9,7.1c2.4,4.1,3.3,9,2.3,13.7c-0.2,1.5-0.4,3-0.6,4.5s-0.6,3.1-1.9,3.9
	c1.1,0.7,2.5,0.8,3.7,0.3c1.2-0.5,2.3-1.1,3.3-2c6.2-5.1,10.9-12.6,11.1-20.7c0.1-0.6,0-1.3-0.3-1.8c-0.3-0.4-0.7-0.7-1.1-1
	c-4.6-3.2-9-6.8-12.9-10.8c-0.3-0.6-1-0.8-1.6-0.5c-0.1,0-0.1,0.1-0.2,0.1c-2.4,1.2-6.4,2.9-7.4,5.6
	C1029.4,683.4,1030,684,1030.3,684.7z"/>
<path class="st1" d="M1001.4,711.6c-5.2,2.2-10.9,3-16.5,3.7c-0.7,0.2-1.4,0.1-2-0.4c-0.4-0.5-0.4-1.2-0.1-1.7
	c0.3-0.5,0.7-1,1.2-1.3l3.8-3.1c-3.3-0.7-6.7-0.1-9.6,1.6c-0.9,0.5-1.6,1.3-1.9,2.2c-0.1,0.9,0.1,1.8,0.7,2.6c1.6,2.3,4,4,6.7,4.7
	c2.7,0.7,5.5,1.1,8.3,1.1l5.1,0.3c-0.4,0.6-0.2,1.4,0.3,1.8c0.6,0.4,1.2,0.6,1.9,0.7c2.1,0.3,4.2,0.3,6.3,0.1c0.5,0,1-0.2,1.4-0.5
	c0.4-0.3,0.4-0.9,0.1-1.3c0,0,0-0.1-0.1-0.1c0.6,0,1.2-0.4,1.4-1c0.2-0.6,0.3-1.2,0.2-1.8c-0.1-2.3-0.3-5.8-1.6-7.9
	S1003.1,710.8,1001.4,711.6z"/>
<path class="st1" d="M1055.3,690.8c-1.7-1.2-3.5-2.2-5.4-3c-0.3-0.2-0.7-0.2-0.9,0.1c0,0-0.1,0.1-0.1,0.2c-3.4,4.7-6.1,9.8-7.9,15.3
	c-1,3.1-1.9,6.4-4,9c-0.3,0.3-0.7,0.7-1.1,0.5s-0.2-1.2-0.5-1.7s-1.4-0.4-2,0.1c-1,0.8-1.9,1.8-2.5,2.9c-0.3,0.5-0.5,1.2-0.4,1.8
	c0.2,0.8,0.7,1.4,1.4,1.8c2.7,1.6,6.1,0.4,9-0.7c0.8-0.3,1.6-0.7,2.3-1.1c1.4-1,2.2-2.7,3.7-3.7c0.8-0.4,1.5-0.9,2.2-1.4
	c1.3-1.2,1.5-3.2,2.4-4.8c1.6-2.6,5.3-3.3,6.7-6.1C1059.7,696.7,1057.8,692.8,1055.3,690.8z"/>
<path class="st1" d="M1014.8,545.8c5.7,4.3,8.1,11.9,7.9,19s-2.8,14-5.2,20.7c-3.6,9.6-7.1,19.1-10.7,28.7c0.4,1,0.7,2.1,0.8,3.3
	c0.2,1.1-0.1,2.3-0.8,3.2c-0.3,0.4-0.8,0.7-1.1,1.1c-0.9,1.3-1.3,2.9-0.9,4.5c0.3,1.5,0.4,3.1,0.1,4.7c-0.2,0.7-0.5,1.3-0.6,1.9
	c-0.2,0.7,0,1.4,0.5,1.8c0.8,0.6,2.2,0.4,2.4,1.3c9.8,8.4,18,18.5,24.2,29.8c2.3,4.2,4.7,8.9,9.1,11c-4.3,3.4-8.4,7-12.3,10.8
	c-6.1-5.4-9.2-13.2-14.2-19.6c-3.2-4-7-7.4-11.3-10.1c2.4,3.5,3,8.3,2.8,12.5c-0.2,2.1-0.5,4.2-1,6.3c-1.1,6.6-1,13.8,2.5,19.5
	c-3.8,2-8.2,3.4-12.4,2.8c-2.7-0.4-5.1-1.8-6.8-3.9c-1.2-14.1-4.3-27.6-7.8-41.3c-0.8-2.7-1.4-5.5-1.7-8.3c-0.5-5.8,1-12.3-0.6-17.6
	c-0.8-2.6-1.3-5.3-1.5-8c0-0.3,0-0.6,0-0.9c-0.1-2-0.3-4-0.7-5.9l-3.1-13.8c-1.3-6-2.7-12.3-1.2-18.2c-0.7-0.3-1.4-0.6-2-1
	c-1.2-0.7-1-2.4-0.5-3.7s1.3-2.7,0.7-3.9c-0.3-0.5-0.7-1-1.1-1.4c-0.7-1.1-1-2.5-1-3.8l-0.4-5.2c2.2,0.9,4,2.5,5.2,4.5
	c-2.9-4.4-1.4-10.8,0.7-15.6c0.8-3,3.5-5.2,6.7-5.3C991.1,543.6,1005.3,538.7,1014.8,545.8z"/>
<path class="st3" d="M1009.5,575.6c0,0-5.7,3.8-5.7,6.7s-1.4,28.6-1.4,28.6V629c0,0,1,9.5,0,11.9s0,13.3,0,14.8s1.4-14.8,1.4-14.8
	v-17.2l1.4-39.1L1009.5,575.6z"/>
<path class="st9" d="M977.5,443.4l-3.3-1.3c-6.8-2.7-13.6-5.5-20.2-8.7c-4.8-2.3-9.6-5.1-12.6-9.5c-1-1.4-1.7-3-2.7-4.4
	c-1.1-1.5-2.3-3-3.6-4.3l-8.9-9.5c-0.7,1.3,0.2,2.8,0.9,4c0.7,1.3,1.3,2.7,1.7,4.2c0.2,0.5,0.2,1,0,1.5c-0.2,0.4-0.8,0.6-1.2,0.9
	c-1.7,1-2.4,3.1-1.8,4.9c0.7,1.8,2.2,3.2,4.1,3.5c0.6,0.1,1.2,0.2,1.8,0.5c1.1,0.5,1.6,1.7,2.3,2.6c1.4,1.7,3.7,2.3,5.8,2.8
	c3.3,3.8,6.7,7.3,10,11.1c5,5.7,10.1,11.5,16.6,15.3c2.3,1.4,4.8,2.4,7.5,3C974.6,454.3,975.9,448.8,977.5,443.4z"/>
<path class="st10" d="M977.5,443.4l-3.3-1.3c-6.8-2.7-13.6-5.5-20.2-8.7c-4.8-2.3-9.6-5.1-12.6-9.5c-1-1.4-1.7-3-2.7-4.4
	c-1.1-1.5-2.3-3-3.6-4.3l-8.9-9.5c-0.7,1.3,0.2,2.8,0.9,4c0.7,1.3,1.3,2.7,1.7,4.2c0.2,0.5,0.2,1,0,1.5c-0.2,0.4-0.8,0.6-1.2,0.9
	c-1.7,1-2.4,3.1-1.8,4.9c0.7,1.8,2.2,3.2,4.1,3.5c0.6,0.1,1.2,0.2,1.8,0.5c1.1,0.5,1.6,1.7,2.3,2.6c1.4,1.7,3.7,2.3,5.8,2.8
	c3.3,3.8,6.7,7.3,10,11.1c5,5.7,10.1,11.5,16.6,15.3c2.3,1.4,4.8,2.4,7.5,3C974.6,454.3,975.9,448.8,977.5,443.4z"/>
<path class="st11" d="M971.4,462.3c-1.1,0-2.1-0.5-2.8-1.4c-0.4-0.8-0.5-1.7-0.3-2.5c0.6-5.5,1.8-10.8,3.6-16c1.6,3,4.8,4.7,7.8,6.3
	c2.7,1.5,5.5,2.8,8.4,3.8c-0.7-0.2-2.5,10.9-3.5,11.6c-1.3,0.9-4.3-0.3-5.7-0.5L971.4,462.3z"/>
<circle class="st9" cx="979.2" cy="443.8" r="15.3"/>
<path class="st12" d="M976.1,456.4c0,0,10,8.6,5.7,14.3s-6.7,9.5-1,10s24.8-9.5,24.8-9.5s-17.6-14.3-14.8-22.9
	S976.1,456.4,976.1,456.4z"/>
<path class="st11" d="M985.7,469.8c-4.3,1-7.7,4.5-8.8,8.8c-1.1,5.2,1.3,10.9-1,15.6c-1.1,2.2-3,3.9-4.3,6
	c-2.7,4.5-2.2,10.2,1.2,14.2c1,1.1,2.3,2.2,2.4,3.7c0,0.7-0.1,1.3-0.2,2c-0.1,1.6,0.6,3.2,1,4.7c0.4,1.3,0.3,2.7-0.4,3.9
	c-0.8,1.1-1.1,2.4-1,3.8c0.4,2-0.5,4-0.6,6.1c-0.1,0.9,0,1.8-0.1,2.7c-0.1,0.8-0.3,1.7-0.5,2.5l-1.3,4.7c6.9,2.8,14.3,4.2,21.8,3.9
	c6.7-0.1,13.3-1.5,19.9-2.9c2-0.4,4-0.8,6-1.4c-4.2-5.4-4.6-12.6-4.7-19.5c-0.2-11.4-1-22.7-2.6-34c2-3.8,2.9-8,3.7-12.2
	c0.4-1.7,0.5-3.4,0.5-5.2c-0.2-3.7-1.9-7.1-3.5-10.4c-1.5-3-3.1-6.2-6.4-7.5c-1.6-0.7-3.5-0.5-5,0.5c-2.5,1.9-1.8,5.2-2.4,8
	c-0.8,3.6-4.2,6.2-7.8,7.3c-2.7,0.7-5.4,1-8.2,0.8c-0.8,0-1.4-0.7-1.3-1.5c0-0.3,0.1-0.6,0.3-0.9
	C983.5,472.4,984.7,471.1,985.7,469.8z"/>
<path class="st9" d="M997.5,528.8c-5.7,4.6-11.4,9.3-17.9,12.5c-3.8,1.9-7.9,3.3-11.6,5.4c-0.9,0.4-1.7,1.1-2.2,2
	c-0.3,0.9-0.3,1.8-0.1,2.7l1.7,11.4c0.5,3.1,3.4,5.1,5.8,7c-0.3-0.9-0.2-1.9,0.2-2.8c0.2-0.3,0.4-0.6,0.6-0.8
	c0.9-1.6,1.2-3.5,0.8-5.4c-0.4-1.8-0.6-3.7-0.6-5.5c0-0.6,0.3-1.2,0.8-1.6c8.1-3.9,16.8-6.9,25-10.6c2.2-0.9,4.2-2,6.1-3.5
	c1.9-1.4,3.1-3.5,3.5-5.8c0.1-0.3,0-0.6-0.2-0.9c-0.2-0.2-0.4-0.3-0.6-0.4C1005,531.4,1001.2,530.1,997.5,528.8z"/>
<path class="st3" d="M981.8,480.9c-2.8,0.5-5.8,1.9-6.7,4.6c-0.3,1.2-0.5,2.4-0.4,3.6c-0.1,1.7,0.2,3.4,0.8,5
	c0.5,0.9,1.1,1.7,1.7,2.5c6.7,8.6,10.1,19.4,16.6,28.1c0.6,0.8,1.6,1.8,1.3,2.7c-0.1,0.2-0.2,0.5-0.3,0.7c-0.1,0.5,0.1,1,0.5,1.3
	c0.4,0.3,0.6,0.7,0.8,1.2c0.1,0.5-0.2,1.1-0.7,1c0.8,2.4,3.2,3.8,5.5,5c3.8,1.9,8,3.4,12.2,3c0.8-3.2,1.9-6.8,1.4-10
	c-0.5-2.5-1.3-4.9-2.4-7.1l-2.8-6.2c-2.4-5.3-4.9-10.6-8.2-15.4c-1.2-1.5-2.2-3.2-3-4.9c-0.9-2.2-3.2-3.8-4.7-5.7
	c-2.1-2.9-4.3-5.8-7.2-7.9C985.1,481.5,983.2,480.7,981.8,480.9z"/>
<path class="st11" d="M981.8,479.5c-2.8,0.5-5.8,1.9-6.7,4.6c-0.3,1.2-0.5,2.4-0.4,3.6c-0.1,1.7,0.2,3.4,0.8,5
	c0.5,0.9,1.1,1.7,1.7,2.5c6.7,8.6,10.1,19.4,16.6,28.1c0.6,0.8,1.6,1.8,1.3,2.7c-0.1,0.2-0.2,0.5-0.3,0.7c-0.1,0.5,0.1,1,0.5,1.3
	c0.4,0.3,0.6,0.7,0.8,1.2c0.1,0.5-0.2,1.1-0.7,1c0.8,2.4,3.2,3.8,5.5,5c3.8,1.9,8,3.4,12.2,3c0.8-3.2,1.9-6.8,1.4-10
	c-0.5-2.5-1.3-4.9-2.4-7.1l-2.8-6.2c-2.4-5.3-4.9-10.6-8.2-15.4c-1.2-1.5-2.2-3.1-3-4.9c-0.9-2.2-3.2-3.8-4.7-5.7
	c-2.1-2.9-4.3-5.8-7.2-7.9C985.1,480.1,983.2,479.3,981.8,479.5z"/>
<path class="st1" d="M975.4,418.7c-2,0.1-4.1,0.5-5.9,1.2c-1.9,0.8-3.2,2.6-3.4,4.7c0,1.2,0.4,2.4,0.3,3.5c-0.3,1.9-2.1,3.2-3,5
	c-1.6,3-0.4,6.8,1.8,9.5s5,4.7,7.1,7.3c3.5,4.3,4.9,9.8,3.9,15.2c-0.3,1-0.4,2.1-0.4,3.2c0.2,1.9,1.5,3.5,2.7,4.9
	c6.2,7.3,12,14.9,17.2,22.9c1.6,2.3,3,4.7,4.2,7.2c1.2,2.6,2.2,5.4,3.9,7.7c1.6,2,3.5,3.6,5.7,4.9c5.5,3.4,11.8,5.4,18.3,5.9
	l-3.7-9.3c-0.8-1.6-1.2-3.4-1.1-5.2c0.4-3.3,3.8-5.5,4.9-8.7c0.6-2.1,0.5-4.3-0.2-6.4c-1.3-4.7-4-8.9-5.4-13.6
	c-1.2-4.1-1.5-8.4-0.8-12.6c0.5-1.8,0.7-3.7,0.6-5.6c-0.7-5.7-7.3-8.4-10.4-13.2c-2-3.1-2.4-6.9-3-10.5c-1-5.3-2.7-10.5-6-14.8
	s-8.4-7.2-13.8-7c-2.9,0.3-5.7,1-8.3,2.1l-7,2.5"/>
<g class="st13">
	<path d="M1006.7,430.5c0.6,3.3,1,6.7,2.5,9.6c-0.2-1.1-0.4-2.3-0.6-3.4c-0.5-2.8-1.3-5.6-2.3-8.3
		C1006.4,429.1,1006.5,429.8,1006.7,430.5z"/>
	<path d="M1019.5,459.9c-0.7,4.2-0.4,8.5,0.8,12.6c0.3,1.1,0.7,2.2,1.2,3.3c-0.6-3.2-0.6-6.5-0.1-9.7c0.5-1.8,0.7-3.7,0.6-5.6
		c-0.2-1.6-0.9-3.1-1.9-4.3C1020,457.4,1019.7,458.6,1019.5,459.9z"/>
	<path d="M1027.6,492.3c-0.4-1.4-0.9-2.7-1.4-4c0.2,1.4,0.2,2.8-0.3,4.2c-1.1,3.2-4.5,5.4-4.9,8.7c-0.1,1.8,0.3,3.6,1.1,5.2l0.8,1.9
		c0-0.3,0-0.5,0-0.8c0.4-3.3,3.8-5.5,4.9-8.7C1028.4,496.6,1028.3,494.4,1027.6,492.3z"/>
	<path d="M1007.6,509.7c-2.2-1.3-4.1-2.9-5.7-4.9c-1.7-2.3-2.7-5.1-3.9-7.7c-1.2-2.5-2.7-4.9-4.2-7.2c-5.2-8-11-15.6-17.2-22.9
		l-0.7-0.8c-0.1,0.7-0.2,1.3-0.2,2c0.2,1.9,1.5,3.5,2.7,4.9c6.2,7.3,12,14.9,17.2,22.9c1.6,2.3,3,4.7,4.2,7.2
		c1.2,2.6,2.2,5.4,3.9,7.7c1.6,2,3.5,3.6,5.7,4.9c5.5,3.4,11.8,5.4,18.3,5.9l-2.5-6.2C1019,515,1013,513,1007.6,509.7z"/>
	<path d="M970.3,443.7c-2.2-2.6-5-4.6-7.1-7.3c-0.2-0.2-0.4-0.5-0.5-0.8c-0.1,2.6,0.8,5,2.5,7c2.1,2.7,5,4.7,7.1,7.3
		c0.8,1,1.6,2.1,2.2,3.3C973.9,449.7,972.5,446.4,970.3,443.7z"/>
</g>
<path class="st14" d="M956.6,316.2l-5.1-5.1c-1-1.1-2.7-1.1-3.8,0c0,0,0,0,0,0L916,342.5L902.6,329c-1-1-2.7-1.1-3.8,0c0,0,0,0,0,0
	l-5.1,5c-1,1.1-1,2.8,0,3.8l20.4,20.5c1.1,1,2.8,1,3.8,0l38.7-38.5C957.7,318.9,957.7,317.2,956.6,316.2
	C956.6,316.2,956.6,316.2,956.6,316.2z"/>
<path class="st14" d="M662.6,504.2l-5.1-5.1c-1-1.1-2.7-1.1-3.8,0c0,0,0,0,0,0L622,530.5L608.6,517c-1-1-2.7-1.1-3.8,0c0,0,0,0,0,0
	l-5.1,5c-1,1.1-1,2.8,0,3.8l20.4,20.5c1.1,1,2.8,1,3.8,0l38.7-38.5C663.6,506.9,663.6,505.2,662.6,504.2z"/>
<g class="st13">
	<polygon points="173.9,577.9 168.8,577.9 168.8,672.2 235.8,672.2 235.8,577.9 	"/>
</g>
<polyline class="st6" points="175,579.8 234.4,579.8 234.4,670.3 170.2,670.3 170.2,579.8 175,579.8 "/>
<rect x="178.3" y="592.8" class="st2" width="48" height="10.4"/>
<rect x="182.5" y="616" class="st15" width="39.6" height="0.6"/>
<rect x="182.5" y="619.5" class="st15" width="39.6" height="0.6"/>
<rect x="182.5" y="623.1" class="st15" width="39.6" height="0.6"/>
<rect x="182.5" y="626.7" class="st15" width="39.6" height="0.6"/>
<rect x="182.5" y="630.2" class="st15" width="39.6" height="0.6"/>
<rect x="182.5" y="633.8" class="st15" width="39.6" height="0.6"/>
<rect x="182.5" y="637.4" class="st15" width="39.6" height="0.6"/>
<rect x="182.5" y="640.9" class="st15" width="39.6" height="0.6"/>
<rect x="182.5" y="644.5" class="st15" width="39.6" height="0.6"/>
<rect x="182.5" y="648.1" class="st15" width="39.6" height="0.6"/>
<rect x="182.5" y="651.7" class="st15" width="39.6" height="0.6"/>
<g class="st13">
	<polygon points="453.9,577.9 448.8,577.9 448.8,672.2 515.8,672.2 515.8,577.9 	"/>
</g>
<polyline class="st6" points="455,579.8 514.4,579.8 514.4,670.3 450.2,670.3 450.2,579.8 455,579.8 "/>
<rect x="458.3" y="592.8" class="st16" width="48" height="10.4"/>
<rect x="462.5" y="616" class="st15" width="39.6" height="0.6"/>
<rect x="462.5" y="619.5" class="st15" width="39.6" height="0.6"/>
<rect x="462.5" y="623.1" class="st15" width="39.6" height="0.6"/>
<rect x="462.5" y="626.7" class="st15" width="39.6" height="0.6"/>
<rect x="462.5" y="630.2" class="st15" width="39.6" height="0.6"/>
<rect x="462.5" y="633.8" class="st15" width="39.6" height="0.6"/>
<rect x="462.5" y="637.4" class="st15" width="39.6" height="0.6"/>
<rect x="462.5" y="640.9" class="st15" width="39.6" height="0.6"/>
<rect x="462.5" y="644.5" class="st15" width="39.6" height="0.6"/>
<rect x="462.5" y="648.1" class="st15" width="39.6" height="0.6"/>
<rect x="462.5" y="651.7" class="st15" width="39.6" height="0.6"/>
<g class="st13">
	<polygon points="746.9,577.9 741.8,577.9 741.8,672.2 808.8,672.2 808.8,577.9 	"/>
</g>
<polyline class="st6" points="748,579.8 807.4,579.8 807.4,670.3 743.2,670.3 743.2,579.8 748,579.8 "/>
<rect x="751.3" y="592.8" class="st2" width="48" height="10.4"/>
<rect x="755.5" y="616" class="st15" width="39.6" height="0.6"/>
<rect x="755.5" y="619.5" class="st15" width="39.6" height="0.6"/>
<rect x="755.5" y="623.1" class="st15" width="39.6" height="0.6"/>
<rect x="755.5" y="626.7" class="st15" width="39.6" height="0.6"/>
<rect x="755.5" y="630.2" class="st15" width="39.6" height="0.6"/>
<rect x="755.5" y="633.8" class="st15" width="39.6" height="0.6"/>
<rect x="755.5" y="637.4" class="st15" width="39.6" height="0.6"/>
<rect x="755.5" y="640.9" class="st15" width="39.6" height="0.6"/>
<rect x="755.5" y="644.5" class="st15" width="39.6" height="0.6"/>
<rect x="755.5" y="648.1" class="st15" width="39.6" height="0.6"/>
<rect x="755.5" y="651.7" class="st15" width="39.6" height="0.6"/>
<g class="st13">
	<polygon points="746.9,382.9 741.8,382.9 741.8,477.2 808.8,477.2 808.8,382.9 	"/>
</g>
<polyline class="st6" points="748,384.8 807.4,384.8 807.4,475.3 743.2,475.3 743.2,384.8 748,384.8 "/>
<rect x="751.3" y="397.8" class="st14" width="48" height="10.4"/>
<rect x="755.5" y="421" class="st15" width="39.6" height="0.6"/>
<rect x="755.5" y="424.5" class="st15" width="39.6" height="0.6"/>
<rect x="755.5" y="428.1" class="st15" width="39.6" height="0.6"/>
<rect x="755.5" y="431.7" class="st15" width="39.6" height="0.6"/>
<rect x="755.5" y="435.2" class="st15" width="39.6" height="0.6"/>
<rect x="755.5" y="438.8" class="st15" width="39.6" height="0.6"/>
<rect x="755.5" y="442.4" class="st15" width="39.6" height="0.6"/>
<rect x="755.5" y="445.9" class="st15" width="39.6" height="0.6"/>
<rect x="755.5" y="449.5" class="st15" width="39.6" height="0.6"/>
<rect x="755.5" y="453.1" class="st15" width="39.6" height="0.6"/>
<rect x="755.5" y="456.7" class="st15" width="39.6" height="0.6"/>
<g>
	<g class="st13">
		<polygon points="453.9,382.9 448.8,382.9 448.8,477.2 515.8,477.2 515.8,382.9 		"/>
	</g>
	<polyline class="st6" points="455,384.8 514.4,384.8 514.4,475.3 450.2,475.3 450.2,384.8 455,384.8 	"/>
	<rect x="458.3" y="397.8" class="st2" width="48" height="10.4"/>
	<rect x="462.5" y="421" class="st15" width="39.6" height="0.6"/>
	<rect x="462.5" y="424.5" class="st15" width="39.6" height="0.6"/>
	<rect x="462.5" y="428.1" class="st15" width="39.6" height="0.6"/>
	<rect x="462.5" y="431.7" class="st15" width="39.6" height="0.6"/>
	<rect x="462.5" y="435.2" class="st15" width="39.6" height="0.6"/>
	<rect x="462.5" y="438.8" class="st15" width="39.6" height="0.6"/>
	<rect x="462.5" y="442.4" class="st15" width="39.6" height="0.6"/>
	<rect x="462.5" y="445.9" class="st15" width="39.6" height="0.6"/>
	<rect x="462.5" y="449.5" class="st15" width="39.6" height="0.6"/>
	<rect x="462.5" y="453.1" class="st15" width="39.6" height="0.6"/>
	<rect x="462.5" y="456.7" class="st15" width="39.6" height="0.6"/>
</g>
<g>
	<g class="st13">
		<polygon points="173.9,382.9 168.8,382.9 168.8,477.2 235.8,477.2 235.8,382.9 		"/>
	</g>
	<polyline class="st6" points="175,384.8 234.4,384.8 234.4,475.3 170.2,475.3 170.2,384.8 175,384.8 	"/>
	<rect x="178.3" y="397.8" class="st2" width="48" height="10.4"/>
	<rect x="182.5" y="421" class="st15" width="39.6" height="0.6"/>
	<rect x="182.5" y="424.5" class="st15" width="39.6" height="0.6"/>
	<rect x="182.5" y="428.1" class="st15" width="39.6" height="0.6"/>
	<rect x="182.5" y="431.7" class="st15" width="39.6" height="0.6"/>
	<rect x="182.5" y="435.2" class="st15" width="39.6" height="0.6"/>
	<rect x="182.5" y="438.8" class="st15" width="39.6" height="0.6"/>
	<rect x="182.5" y="442.4" class="st15" width="39.6" height="0.6"/>
	<rect x="182.5" y="445.9" class="st15" width="39.6" height="0.6"/>
	<rect x="182.5" y="449.5" class="st15" width="39.6" height="0.6"/>
	<rect x="182.5" y="453.1" class="st15" width="39.6" height="0.6"/>
	<rect x="182.5" y="456.7" class="st15" width="39.6" height="0.6"/>
</g>
</svg>
