<?xml version="1.0" encoding="utf-8"?>
<!-- Generator: Adobe Illustrator 23.0.2, SVG Export Plug-In . SVG Version: 6.00 Build 0)  -->
<svg version="1.1" id="Layer_1" xmlns="http://www.w3.org/2000/svg" xmlns:xlink="http://www.w3.org/1999/xlink" x="0px" y="0px"
	 viewBox="0 0 512 512" style="enable-background:new 0 0 512 512;" xml:space="preserve">
<style type="text/css">
	.st0{fill:#FED370;}
	.st1{fill:#FDA736;}
</style>
<path class="st0" d="M364.4,79.1c2-1.9,2.9-4.7,2.4-7.4L359.7,30c-1.2-6.9,6-12.1,12.2-8.9l37.4,19.7c2.5,1.3,5.4,1.3,7.8,0
	l37.4-19.7c6.2-3.2,13.4,2,12.2,8.9l-1.1,6.1l-6.1,35.6c-0.5,2.7,0.4,5.5,2.4,7.4l30.3,29.5c5,4.9,2.2,13.3-4.7,14.4l-41.8,6.1
	c-2.7,0.4-5.1,2.1-6.3,4.6l-18.7,37.9c-3.1,6.2-12,6.2-15.1,0L387,133.7c-1.2-2.5-3.6-4.2-6.3-4.6l-12.9-1.9l-28.9-4.2
	c-6.9-1-9.7-9.5-4.7-14.4L364.4,79.1z"/>
<path class="st1" d="M364.4,79.1c2-1.9,2.9-4.7,2.4-7.4L359.7,30c-1.2-6.9,6-12.1,12.2-8.9l37.4,19.7c2.5,1.3,5.4,1.3,7.8,0
	l37.4-19.7c6.2-3.2,13.4,2,12.2,8.9l-1.1,6.1c-65.6,28-90,63-98,91.1l-28.9-4.2c-6.9-1-9.7-9.5-4.7-14.4L364.4,79.1z"/>
<path class="st0" d="M379.9,297.4c1.6-1.5,2.3-3.7,1.9-5.8l-5.6-32.6c-0.9-5.4,4.7-9.5,9.5-6.9l29.2,15.4c1.9,1,4.2,1,6.1,0
	l29.3-15.4c4.8-2.5,10.5,1.6,9.5,6.9l-0.8,4.8l-4.8,27.8c-0.4,2.1,0.3,4.3,1.9,5.8l23.7,23.1c3.9,3.8,1.8,10.4-3.6,11.2l-32.7,4.8
	c-2.1,0.3-4,1.7-5,3.6l-14.6,29.6c-2.4,4.9-9.4,4.9-11.8,0L397.5,340c-1-1.9-2.8-3.3-5-3.6l-10.1-1.5l-22.6-3.3
	c-5.4-0.8-7.6-7.4-3.6-11.2L379.9,297.4z"/>
<path class="st1" d="M379.9,297.4c1.6-1.5,2.3-3.7,1.9-5.8l-5.6-32.6c-0.9-5.4,4.7-9.5,9.5-6.9l29.2,15.4c1.9,1,4.2,1,6.1,0
	l29.3-15.4c4.8-2.5,10.5,1.6,9.5,6.9l-0.8,4.8c-51.3,21.9-70.4,49.2-76.6,71.2l-22.6-3.3c-5.4-0.8-7.6-7.4-3.6-11.2L379.9,297.4z"/>
<path class="st0" d="M222.6,35.4c1.2-1.2,1.7-2.8,1.5-4.5l-4.3-25c-0.7-4.1,3.6-7.3,7.3-5.3l22.5,11.8c1.5,0.8,3.2,0.8,4.7,0
	l22.5-11.8c3.7-1.9,8,1.2,7.3,5.3l-0.6,3.7l-3.7,21.3c-0.3,1.6,0.3,3.3,1.5,4.5l18.2,17.7c3,2.9,1.3,8-2.8,8.6l-25.1,3.6
	c-1.6,0.2-3.1,1.3-3.8,2.8l-11.2,22.8c-1.9,3.8-7.2,3.8-9.1,0l-11.2-22.8c-0.7-1.5-2.2-2.5-3.8-2.8l-7.8-1.1l-17.4-2.5
	c-4.1-0.6-5.8-5.7-2.8-8.6L222.6,35.4z"/>
<path class="st1" d="M222.6,35.4c1.2-1.2,1.7-2.8,1.5-4.5l-4.3-25c-0.7-4.1,3.6-7.3,7.3-5.3l22.5,11.8c1.5,0.8,3.2,0.8,4.7,0
	l22.5-11.8c3.7-1.9,8,1.2,7.3,5.3l-0.6,3.7c-39.4,16.8-54.1,37.8-58.9,54.7l-17.4-2.5c-4.1-0.6-5.8-5.7-2.8-8.6L222.6,35.4z"/>
<path class="st1" d="M138,385.3c1.9,0,3.9,0.7,5.4,2.2c3,3,3,7.8,0,10.8L31.9,509.8c-3,3-7.8,3-10.8,0c-3-3-3-7.8,0-10.8
	l111.5-111.5C134.1,386,136.1,385.3,138,385.3z"/>
<path class="st1" d="M358.4,164.8c1.9,0,3.9,0.7,5.4,2.2c3,3,3,7.8,0,10.8L254.3,287.4c-3,3-7.8,3-10.8,0c-3-3-3-7.8,0-10.8
	L353,167.1C354.5,165.6,356.5,164.8,358.4,164.8z"/>
<path class="st0" d="M317.4,157.3c1.9,0,3.9,0.7,5.4,2.2c3,3,3,7.8,0,10.8L273.1,220c-3,3-7.8,3-10.8,0s-3-7.8,0-10.8l49.7-49.7
	C313.5,158.1,315.5,157.3,317.4,157.3z"/>
<path class="st1" d="M159.2,194.4c1.9,0,3.9,0.7,5.4,2.2c3,3,3,7.8,0,10.8L23,348.9c-3,3-7.8,3-10.8,0s-3-7.8,0-10.8l141.5-141.6
	C155.3,195.1,157.2,194.4,159.2,194.4z"/>
<path class="st1" d="M221.2,132.3c1.9,0,3.9,0.7,5.4,2.2c3,3,3,7.8,0,10.8l-36.4,36.4c-3,3-7.8,3-10.8,0c-3-3-3-7.8,0-10.8
	l36.4-36.4C217.3,133.1,219.3,132.3,221.2,132.3z"/>
<path class="st1" d="M333.1,290.7c1.9,0,3.9,0.7,5.4,2.2c3,3,3,7.8,0,10.8l-24,24c-3,3-7.8,3-10.8,0c-3-3-3-7.8,0-10.8l24-24
	C329.2,291.4,331.2,290.7,333.1,290.7z"/>
<path class="st1" d="M234.4,436.2c1.9,0,3.9,0.7,5.4,2.2c3,3,3,7.8,0,10.8l-33.9,33.9c-3,3-7.8,3-10.8,0s-3-7.8,0-10.8l33.9-33.9
	C230.5,437,232.5,436.2,234.4,436.2z"/>
<path class="st1" d="M333.1,337.5c1.9,0,3.9,0.7,5.4,2.2c3,3,3,7.8,0,10.8l-75.6,75.6c-3,3-7.8,3-10.8,0c-3-3-3-7.8,0-10.8
	l75.6-75.6C329.2,338.2,331.2,337.5,333.1,337.5z"/>
<path class="st1" d="M354.2,382.2c1.9,0,3.9,0.7,5.4,2.2c3,3,3,7.8,0,10.8l-35.3,35.3c-3,3-7.8,3-10.8,0c-3-3-3-7.8,0-10.8
	l35.3-35.3C350.3,382.9,352.2,382.2,354.2,382.2z"/>
<path class="st0" d="M174.1,338.6c1-1,1.5-2.5,1.3-3.9l-3.8-22c-0.6-3.6,3.2-6.4,6.4-4.7l19.7,10.4c1.3,0.7,2.8,0.7,4.1,0l19.7-10.4
	c3.3-1.7,7.1,1.1,6.4,4.7l-0.6,3.2l-3.2,18.7c-0.2,1.4,0.2,2.9,1.3,3.9l16,15.6c2.6,2.6,1.2,7-2.5,7.6l-22,3.2
	c-1.4,0.2-2.7,1.1-3.3,2.4l-9.9,20c-1.6,3.3-6.3,3.3-7.9,0l-9.9-20c-0.6-1.3-1.9-2.2-3.3-2.4l-6.8-1l-15.2-2.2
	c-3.6-0.5-5.1-5-2.5-7.6L174.1,338.6z"/>
<path class="st1" d="M174.1,338.6c1-1,1.5-2.5,1.3-3.9l-3.8-22c-0.6-3.6,3.2-6.4,6.4-4.7l19.7,10.4c1.3,0.7,2.8,0.7,4.1,0l19.7-10.4
	c3.3-1.7,7.1,1.1,6.4,4.7l-0.6,3.2c-34.6,14.7-47.4,33.2-51.7,48l-15.2-2.2c-3.6-0.5-5.1-5-2.5-7.6L174.1,338.6z"/>
<path class="st1" d="M192.5,96.2c1.9,0,3.9,0.7,5.4,2.2c3,3,3,7.8,0,10.8l-43.6,43.6c-3,3-7.8,3-10.8,0c-3-3-3-7.8,0-10.8l43.6-43.6
	C188.6,96.9,190.6,96.2,192.5,96.2z"/>
<g>
	<path class="st0" d="M176.6,227c1.9,0,3.9,0.7,5.4,2.2c3,3,3,7.8,0,10.8l-17.4,17.4c-3,3-7.8,3-10.8,0c-3-3-3-7.8,0-10.8l17.4-17.4
		C172.7,227.7,174.6,227,176.6,227z"/>
	<path class="st0" d="M71.5,417.5c1.9,0,3.9,0.7,5.4,2.2c3,3,3,7.8,0,10.8L56,451.4c-3,3-7.8,3-10.8,0c-3-3-3-7.8,0-10.8l20.9-20.9
		C67.6,418.3,69.6,417.5,71.5,417.5z"/>
	<path class="st0" d="M398.5,440.1C398.5,440.1,398.5,440.1,398.5,440.1c4.2,0,7.6,3.4,7.6,7.6l0,2.7c0,4.2-3.4,7.6-7.6,7.6
		c-4.2,0-7.6-3.4-7.6-7.6l0-2.7C390.9,443.5,394.3,440.1,398.5,440.1z"/>
	<path class="st0" d="M398.6,413.1C398.6,413.1,398.6,413.1,398.6,413.1c4.2,0,7.6,3.4,7.6,7.6l0,2.7c0,4.2-3.4,7.6-7.6,7.6h0
		c-4.2,0-7.6-3.4-7.6-7.6l0-2.7C391,416.5,394.4,413.1,398.6,413.1z"/>
	<path class="st0" d="M383.7,427.9C383.7,427.9,383.7,427.9,383.7,427.9l2.7,0c4.2,0,7.6,3.4,7.6,7.6c0,4.2-3.4,7.6-7.6,7.6h0
		l-2.7,0c-4.2,0-7.6-3.4-7.6-7.6C376.1,431.3,379.5,427.9,383.7,427.9z"/>
	<path class="st0" d="M410.7,428C410.8,428,410.8,428,410.7,428l2.7,0c4.2,0,7.6,3.4,7.6,7.6c0,4.2-3.4,7.6-7.6,7.6h0l-2.7,0
		c-4.2,0-7.6-3.4-7.6-7.6C403.2,431.4,406.6,428,410.7,428z"/>
</g>
<path class="st1" d="M480.1,203.7C480.1,203.7,480.1,203.7,480.1,203.7c4.2,0,7.6,3.4,7.6,7.6l0,2.7c0,4.2-3.5,7.6-7.6,7.6
	c-4.2,0-7.6-3.4-7.6-7.6l0-2.7C472.5,207.1,475.9,203.7,480.1,203.7z"/>
<path class="st1" d="M480.1,176.7C480.2,176.7,480.2,176.7,480.1,176.7c4.2,0,7.6,3.4,7.6,7.6l0,2.7c0,4.2-3.4,7.6-7.6,7.6
	c-4.2,0-7.6-3.4-7.6-7.6l0-2.7C472.6,180.1,476,176.7,480.1,176.7z"/>
<path class="st1" d="M465.3,191.5C465.3,191.5,465.3,191.5,465.3,191.5l2.7,0c4.2,0,7.6,3.4,7.6,7.7c0,4.2-3.4,7.6-7.6,7.6l-2.7,0
	c-4.2,0-7.6-3.4-7.6-7.6C457.7,194.9,461.1,191.5,465.3,191.5z"/>
<path class="st1" d="M492.3,191.6C492.3,191.6,492.3,191.6,492.3,191.6l2.7,0c4.2,0,7.6,3.4,7.6,7.6c0,4.2-3.4,7.6-7.6,7.6l-2.7,0
	c-4.2,0-7.6-3.4-7.6-7.6C484.7,194.9,488.1,191.6,492.3,191.6z"/>
<path class="st0" d="M98.8,112.6C98.8,112.6,98.8,112.6,98.8,112.6c4.2,0,7.6,3.4,7.6,7.6l0,2.7c0,4.2-3.4,7.6-7.6,7.6h0
	c-4.2,0-7.6-3.4-7.6-7.6l0-2.7C91.2,116,94.6,112.6,98.8,112.6z"/>
<path class="st0" d="M98.9,85.5C98.9,85.5,98.9,85.5,98.9,85.5c4.2,0,7.6,3.4,7.6,7.6l0,2.7c0,4.2-3.4,7.6-7.6,7.6h0
	c-4.2,0-7.6-3.4-7.6-7.7l0-2.7C91.3,88.9,94.7,85.5,98.9,85.5z"/>
<path class="st0" d="M84,100.3C84,100.3,84,100.3,84,100.3l2.7,0c4.2,0,7.6,3.4,7.6,7.6c0,4.2-3.4,7.6-7.6,7.6h0l-2.7,0
	c-4.2,0-7.6-3.4-7.6-7.6C76.4,103.7,79.8,100.3,84,100.3z"/>
<path class="st0" d="M111,100.4C111,100.4,111,100.4,111,100.4l2.7,0c4.2,0,7.6,3.4,7.6,7.6c0,4.2-3.4,7.6-7.6,7.6h0l-2.7,0
	c-4.2,0-7.6-3.4-7.6-7.6C103.4,103.8,106.8,100.4,111,100.4z"/>
</svg>
